<svg width="176" height="24" viewBox="0 0 176 24" fill="none" xmlns="http://www.w3.org/2000/svg">
<g clip-path="url(#clip0_2027_571)">
<path d="M21.8182 5.90401V8.64219C21.8182 11.9018 19.1738 14.5462 15.9142 14.5462H6.54545C5.10545 14.5462 3.86182 15.3818 3.27273 16.5949V16.5993C3.24 16.6691 3.20727 16.7389 3.17891 16.8109L0 24V16.728C0 12.1091 3.744 8.3651 8.36291 8.3651H15.9993C15.9993 8.3651 15.9993 8.3651 16.0015 8.3651C16.0015 8.3651 16.0058 8.3651 16.008 8.3651C18.6196 8.3651 20.736 6.24874 20.736 3.6371C20.736 3.13964 20.6575 2.65964 20.5156 2.20801C21.3295 3.22037 21.8182 4.50546 21.8182 5.90619V5.90401Z" fill="url(#paint0_linear_2027_571)"/>
<path d="M16.3833 0.0196364C16.2284 0.00654546 16.0713 0 15.9142 0H5.904C2.64436 0 0 2.64436 0 5.904V12.3185C1.02109 10.3833 2.69455 8.85164 4.728 8.00291V7.272C4.728 6.66982 5.21673 6.18109 5.81891 6.18109H16.0015C16.5491 6.18109 17.0007 6.58473 17.0793 7.11055C18.5607 6.65236 19.6385 5.26909 19.6385 3.63709C19.6385 1.75855 18.2138 0.211636 16.3855 0.0218182L16.3833 0.0196364Z" fill="url(#paint1_linear_2027_571)"/>
<path d="M29.7512 20.3585V0H37.7825C39.3272 0 40.6429 0.292364 41.7294 0.879273C42.8159 1.46618 43.6472 2.27782 44.2189 3.31418C44.7927 4.35055 45.0785 5.54618 45.0785 6.89673C45.0785 8.24727 44.7861 9.44073 44.2036 10.4749C43.621 11.5091 42.7767 12.3142 41.6727 12.8902C40.5687 13.4662 39.2356 13.7542 37.6712 13.7542H32.5527V10.3047H36.9774C37.8065 10.3047 38.4894 10.1607 39.0305 9.87273C39.5716 9.58473 39.9752 9.18327 40.2436 8.67055C40.5119 8.15782 40.6472 7.56655 40.6472 6.89673C40.6472 6.22691 40.5141 5.62909 40.2436 5.12291C39.9752 4.61673 39.5694 4.22182 39.0261 3.94036C38.4829 3.65891 37.7934 3.51709 36.9578 3.51709H34.0559V20.3564H29.7512V20.3585Z" fill="#1a1a1a"/>
<path d="M52.0364 0V20.3585H47.8015V0H52.0364Z" fill="#1a1a1a"/>
<path d="M65.208 13.8567V5.09018H69.4429V20.3585H65.3782V17.5855H65.2189C64.8742 18.48 64.3026 19.2 63.504 19.7433C62.7055 20.2865 61.7324 20.5593 60.5869 20.5593C59.5658 20.5593 58.6691 20.328 57.8924 19.8633C57.1178 19.3985 56.5113 18.7396 56.0793 17.8844C55.6451 17.0291 55.4248 16.0058 55.4182 14.8124V5.09018H59.6531V14.0575C59.6597 14.9585 59.9018 15.672 60.3797 16.1956C60.8575 16.7193 61.4968 16.9811 62.2975 16.9811C62.808 16.9811 63.2858 16.8633 63.7288 16.6276C64.1717 16.392 64.5317 16.0429 64.8066 15.5782C65.0815 15.1135 65.2168 14.5418 65.2102 13.8589L65.208 13.8567Z" fill="#1a1a1a"/>
<path d="M72.8225 20.3585V5.09018H76.8589V7.78472H77.0378C77.3563 6.89018 77.8865 6.18327 78.6283 5.66618C79.3701 5.14909 80.2581 4.89163 81.2923 4.89163C82.3265 4.89163 83.2298 5.15127 83.9672 5.67272C84.7025 6.192 85.1934 6.89672 85.4378 7.78472H85.5971C85.9091 6.90981 86.4741 6.20945 87.2923 5.68145C88.1105 5.15345 89.0792 4.89163 90.2007 4.89163C91.6254 4.89163 92.784 5.34327 93.6741 6.24872C94.5643 7.15418 95.0116 8.4349 95.0116 10.0909V20.3607H90.7876V10.9265C90.7876 10.0778 90.5629 9.44291 90.1112 9.01745C89.6596 8.59418 89.0967 8.38036 88.4203 8.38036C87.6523 8.38036 87.0523 8.62472 86.6203 9.11127C86.1883 9.59781 85.9745 10.2393 85.9745 11.0356V20.3607H81.8683V10.8371C81.8683 10.0887 81.6545 9.49091 81.2269 9.048C80.7992 8.60291 80.2385 8.38254 79.5425 8.38254C79.0712 8.38254 78.6501 8.50036 78.2749 8.736C77.8996 8.97163 77.6029 9.2989 77.3847 9.72C77.1665 10.1411 77.0574 10.632 77.0574 11.1971V20.3629H72.8225V20.3585Z" fill="#1a1a1a"/>
<path d="M102.585 0V20.3585H98.3499V0H102.585Z" fill="#1a1a1a"/>
<path d="M112.863 20.6575C111.319 20.6575 109.985 20.328 108.862 19.6691C107.738 19.0102 106.872 18.0895 106.263 16.9047C105.655 15.7222 105.349 14.3476 105.349 12.7833C105.349 11.2189 105.655 9.8269 106.263 8.64218C106.872 7.45963 107.74 6.5389 108.862 5.87781C109.985 5.2189 111.319 4.88945 112.863 4.88945C114.408 4.88945 115.741 5.2189 116.865 5.87781C117.988 6.53672 118.855 7.45745 119.463 8.64218C120.072 9.82472 120.377 11.2058 120.377 12.7833C120.377 14.3607 120.072 15.72 119.463 16.9047C118.852 18.0873 117.986 19.008 116.865 19.6691C115.741 20.328 114.408 20.6575 112.863 20.6575ZM112.883 17.376C113.585 17.376 114.172 17.1753 114.641 16.7738C115.113 16.3724 115.468 15.8247 115.711 15.1287C115.953 14.4327 116.073 13.6407 116.073 12.7527C116.073 11.8647 115.953 11.0727 115.711 10.3767C115.468 9.68072 115.113 9.1309 114.641 8.72727C114.17 8.32363 113.583 8.12072 112.883 8.12072C112.183 8.12072 111.578 8.32363 111.098 8.72727C110.618 9.1309 110.256 9.68072 110.014 10.3767C109.772 11.0727 109.652 11.8647 109.652 12.7527C109.652 13.6407 109.772 14.4327 110.014 15.1287C110.256 15.8247 110.616 16.3724 111.098 16.7738C111.578 17.1753 112.174 17.376 112.883 17.376Z" fill="#1a1a1a"/>
<path d="M130.041 20.6575C128.496 20.6575 127.163 20.328 126.039 19.6691C124.916 19.0102 124.05 18.0895 123.441 16.9047C122.832 15.7222 122.527 14.3476 122.527 12.7833C122.527 11.2189 122.832 9.8269 123.441 8.64218C124.05 7.45963 124.918 6.5389 126.039 5.87781C127.163 5.2189 128.496 4.88945 130.041 4.88945C131.586 4.88945 132.919 5.2189 134.042 5.87781C135.166 6.53672 136.032 7.45745 136.641 8.64218C137.25 9.82472 137.555 11.2058 137.555 12.7833C137.555 14.3607 137.25 15.72 136.641 16.9047C136.03 18.0873 135.164 19.008 134.042 19.6691C132.919 20.328 131.586 20.6575 130.041 20.6575ZM130.06 17.376C130.763 17.376 131.35 17.1753 131.819 16.7738C132.29 16.3724 132.646 15.8247 132.888 15.1287C133.13 14.4327 133.25 13.6407 133.25 12.7527C133.25 11.8647 133.13 11.0727 132.888 10.3767C132.646 9.68072 132.29 9.1309 131.819 8.72727C131.348 8.32363 130.761 8.12072 130.06 8.12072C129.36 8.12072 128.756 8.32363 128.276 8.72727C127.796 9.1309 127.434 9.68072 127.191 10.3767C126.949 11.0727 126.829 11.8647 126.829 12.7527C126.829 13.6407 126.949 14.4327 127.191 15.1287C127.434 15.8247 127.794 16.3724 128.276 16.7738C128.756 17.1753 129.351 17.376 130.06 17.376Z" fill="#1a1a1a"/>
<path d="M140.322 20.3585V5.09018H144.358V7.78472H144.537C144.855 6.89018 145.386 6.18327 146.127 5.66618C146.869 5.14909 147.757 4.89163 148.791 4.89163C149.826 4.89163 150.729 5.15127 151.466 5.67272C152.202 6.192 152.692 6.89672 152.937 7.78472H153.096C153.408 6.90981 153.973 6.20945 154.791 5.68145C155.61 5.15345 156.578 4.89163 157.7 4.89163C159.124 4.89163 160.283 5.34327 161.173 6.24872C162.063 7.15418 162.511 8.4349 162.511 10.0909V20.3607H158.287V10.9265C158.287 10.0778 158.062 9.44291 157.61 9.01745C157.159 8.59418 156.596 8.38036 155.919 8.38036C155.151 8.38036 154.551 8.62472 154.119 9.11127C153.687 9.59781 153.474 10.2393 153.474 11.0356V20.3607H149.367V10.8371C149.367 10.0887 149.154 9.49091 148.726 9.048C148.298 8.60291 147.738 8.38254 147.042 8.38254C146.57 8.38254 146.149 8.50036 145.774 8.736C145.399 8.97163 145.102 9.2989 144.884 9.72C144.666 10.1411 144.556 10.632 144.556 11.1971V20.3629H140.322V20.3585Z" fill="#1a1a1a"/>
</g>
<defs>
<linearGradient id="paint0_linear_2027_571" x1="26.5025" y1="13.104" x2="-1.97018" y2="13.104" gradientUnits="userSpaceOnUse">
<stop offset="0.1" stop-color="#813671"/>
<stop offset="0.2" stop-color="#ACABC8"/>
<stop offset="0.26" stop-color="#C7F3FE"/>
<stop offset="0.3" stop-color="#B3BDD6"/>
<stop offset="0.34" stop-color="#9D83AB"/>
<stop offset="0.38" stop-color="#8E598B"/>
<stop offset="0.41" stop-color="#843F78"/>
<stop offset="0.43" stop-color="#813671"/>
<stop offset="0.46" stop-color="#7A3A72"/>
<stop offset="0.84" stop-color="#346B88"/>
</linearGradient>
<linearGradient id="paint1_linear_2027_571" x1="21.2007" y1="6.15927" x2="1.11927" y2="6.15927" gradientUnits="userSpaceOnUse">
<stop offset="0.16" stop-color="#333333"/>
<stop offset="0.38" stop-color="#57314D"/>
<stop offset="0.64" stop-color="#7C3068"/>
<stop offset="0.77" stop-color="#8B3073"/>
<stop offset="0.83" stop-color="#92337A"/>
<stop offset="0.92" stop-color="#A63E8D"/>
<stop offset="1" stop-color="#BF4BA6"/>
</linearGradient>
<clipPath id="clip0_2027_571">
<rect width="162.508" height="24" fill="white"/>
</clipPath>
</defs>
</svg>